<?xml version="1.0" encoding="UTF-8"?>
<svg id="_레이어_2" data-name="레이어 2" xmlns="http://www.w3.org/2000/svg" xmlns:xlink="http://www.w3.org/1999/xlink" viewBox="0 0 20.66 20.69">
  <defs>
    <style>
      .cls-1 {
        fill: none;
      }

      .cls-1, .cls-2 {
        stroke-width: 0px;
      }

      .cls-3 {
        clip-path: url(#clippath);
      }

      .cls-2 {
        fill: #ff9b58;
      }
    </style>
    <clipPath id="clippath">
      <rect class="cls-1" width="20.66" height="20.69"/>
    </clipPath>
  </defs>
  <g id="_레이어_2-2" data-name="레이어 2">
    <g id="_그룹_118" data-name="그룹 118">
      <g class="cls-3">
        <g id="_그룹_117" data-name="그룹 117">
          <path id="_패스_452" data-name="패스 452" class="cls-2" d="m0,9.9v-1.01c.1-.24.33-.39.59-.4.15-.01.31-.01.46,0,.17.02.24-.06.27-.2.1-.44.32-.85.63-1.18.11-.12.16-.3.12-.46-.07-.4-.07-.82,0-1.22.21-1.09,1.02-1.97,2.08-2.27.09-.04.16-.11.19-.2.15-.47.41-.9.75-1.25.4-.43.94-.72,1.53-.81.37-.04.75-.04,1.13,0,.22.05.46-.02.62-.19.2-.18.43-.32.69-.42.3-.11.61-.21.92-.29h.73s.04.03.06.04c.65.09,1.25.38,1.72.83.04.03.09.05.14.05.31-.02.62-.06.93-.07.72,0,1.41.28,1.92.78.4.38.69.85.85,1.38.02.06.07.11.13.14.62.19,1.17.56,1.57,1.07.51.65.72,1.49.58,2.31-.04.15-.03.31.02.46.25.3.46.64.62.99.06.17.08.41.2.48.14.09.36.02.55.02.32-.04.61.19.65.51,0,.01,0,.02,0,.03.02.11.02.23,0,.34-.02.37-.04.74-.08,1.11-.08.69-.24,1.36-.48,2.01-.43,1.24-1.09,2.39-1.96,3.37-.56.67-1.22,1.25-1.96,1.72-.23.11-.37.36-.33.62.03.35,0,.71-.06,1.06-.08.4-.3.76-.63,1.01-.3.26-.68.4-1.08.41-2.52,0-5.04,0-7.55,0-.05,0-.11,0-.16,0-.87-.17-1.49-.93-1.5-1.81,0-.28,0-.57,0-.85,0-.12-.06-.24-.16-.29-.44-.32-.89-.63-1.29-1-.63-.57-1.19-1.22-1.67-1.93-.43-.64-.78-1.33-1.06-2.05-.29-.75-.49-1.53-.59-2.33-.02-.18-.05-.36-.08-.53m1.22-.2c0,.17.01.34.04.51.1.64.26,1.26.46,1.88.43,1.24,1.12,2.37,2.04,3.31.48.46,1,.89,1.53,1.28.17.17.39.27.63.29,2.94,0,5.88,0,8.83,0,.09,0,.18-.03.26-.07.58-.33,1.12-.74,1.61-1.2.63-.59,1.17-1.27,1.6-2.01.36-.59.64-1.23.82-1.9.11-.43.23-.85.32-1.29.05-.26.06-.53.09-.8H1.22Zm16.92-1.22c-.03-.09-.08-.18-.13-.26-.2-.24-.41-.47-.63-.71-.16-.14-.22-.37-.15-.58.18-.42.22-.88.13-1.33-.18-.71-.78-1.23-1.51-1.32-.37,0-.67-.3-.67-.67-.04-.42-.23-.8-.54-1.08-.54-.5-1.33-.63-2-.33-.25.13-.56.06-.73-.16-.11-.14-.23-.26-.35-.38-.42-.36-.98-.51-1.52-.41-.48.07-.92.32-1.22.7-.18.28-.54.38-.84.23-.35-.15-.74-.19-1.11-.11-.76.14-1.34.77-1.42,1.54-.01.38-.32.68-.7.67-.49.05-.93.31-1.19.72-.38.5-.45,1.18-.19,1.75.15.3.07.66-.18.86-.14.1-.27.22-.38.35-.11.16-.21.34-.3.51h15.64Zm-12.08,9.71c0,.27,0,.53,0,.78.04.27.25.47.52.5h7.47c.23-.02.43-.17.52-.38.04-.3.05-.6.07-.91H6.06Z"/>
        </g>
      </g>
    </g>
  </g>
</svg>