<?xml version="1.0" encoding="UTF-8"?>
<svg id="_레이어_2" data-name="레이어 2" xmlns="http://www.w3.org/2000/svg" xmlns:xlink="http://www.w3.org/1999/xlink" viewBox="0 0 22.29 17.9">
  <defs>
    <style>
      .cls-1 {
        stroke-width: 0px;
      }

      .cls-1, .cls-2 {
        fill: none;
      }

      .cls-2 {
        stroke: #50bc58;
        stroke-linecap: round;
        stroke-linejoin: round;
        stroke-width: 1.2px;
      }

      .cls-3 {
        clip-path: url(#clippath);
      }
    </style>
    <clipPath id="clippath">
      <rect class="cls-1" width="22.29" height="17.9"/>
    </clipPath>
  </defs>
  <g id="_레이어_2-2" data-name="레이어 2">
    <g id="_그룹_120" data-name="그룹 120">
      <g class="cls-3">
        <g id="_그룹_119" data-name="그룹 119">
          <path id="_패스_453" data-name="패스 453" class="cls-2" d="m9.12.6H1.71c-.61,0-1.11.5-1.11,1.11v5.95c-.03,1.71.4,3.41,1.22,4.91,1.29,2.27,3.94,4.74,9.32,4.74"/>
          <path id="_패스_454" data-name="패스 454" class="cls-2" d="m.78,9.65c3.3.91,5.76,3.68,6.26,7.07"/>
          <path id="_패스_455" data-name="패스 455" class="cls-2" d="m.6,2.76l.45.17.45-.17.45.17.45-.17.45.17.45-.17.45.17.45-.17.46.17.52-.14-.15.54.17.47-.17.48.17.48-.17.48.17.48-.17.48.17.48-.17.48.15.54-.51-.14-.45.17-.45-.17-.45.17-.45-.17-.45.17-.45-.17-.46.17-.46-.17-.46.17"/>
          <path id="_패스_456" data-name="패스 456" class="cls-2" d="m13.16.6h7.41c.61,0,1.11.5,1.11,1.11v5.95c.03,1.71-.4,3.41-1.22,4.91-1.29,2.27-3.94,4.74-9.32,4.74"/>
          <path id="_패스_457" data-name="패스 457" class="cls-2" d="m21.51,9.65c-3.3.91-5.76,3.68-6.27,7.07"/>
          <path id="_패스_458" data-name="패스 458" class="cls-2" d="m21.69,2.92l-.45-.17-.45.17-.45-.17-.45.17-.45-.17-.45.17-.45-.17-.45.17-.46-.17-.39.14-.15.42.17.47-.17.47.17.48-.17.48.17.48-.17.48.17.48-.17.48.15.43.39.14.45-.17.45.17.45-.17.45.17.45-.17.45.17.45-.17.45.17.46-.17"/>
          <line id="_선_34" data-name="선 34" class="cls-2" x1="5.11" y1="3.55" x2="17.17" y2="3.55"/>
        </g>
      </g>
    </g>
  </g>
</svg>