<?xml version="1.0" encoding="UTF-8"?>
<svg id="_레이어_2" data-name="레이어 2" xmlns="http://www.w3.org/2000/svg" xmlns:xlink="http://www.w3.org/1999/xlink" viewBox="0 0 14.06 23.63">
  <defs>
    <style>
      .cls-1 {
        fill: #ff7464;
      }

      .cls-1, .cls-2 {
        stroke-width: 0px;
      }

      .cls-2 {
        fill: none;
      }

      .cls-3 {
        clip-path: url(#clippath);
      }
    </style>
    <clipPath id="clippath">
      <rect class="cls-2" width="14.06" height="23.63"/>
    </clipPath>
  </defs>
  <g id="_레이어_2-2" data-name="레이어 2">
    <g id="_그룹_116" data-name="그룹 116">
      <g class="cls-3">
        <g id="_그룹_115" data-name="그룹 115">
          <path id="_패스_451" data-name="패스 451" class="cls-1" d="m14.04,8.86c-.13-.8-.7-1.46-1.48-1.7-.17-.02-.3-.16-.3-.33-.2-1.16-.81-2.2-1.72-2.94-.37-.29-.77-.54-1.19-.74-.18-.1-.27-.16-.27-.38.02-.42,0-.84-.08-1.25C8.74.48,7.72-.17,6.68.03c-.78.13-1.41.71-1.6,1.48-.07.43-.1.86-.1,1.29,0,.14-.08.27-.21.32-.45.22-.87.48-1.27.77-.95.81-1.57,1.94-1.73,3.18l-.37.12c-1.1.38-1.68,1.57-1.3,2.67.13.38.36.71.68.96.11.08.16.21.15.34v9.65c0,.21,0,.43.03.64.11.74.55,1.4,1.2,1.77.31.16.64.29.97.4h7.75s.05-.04.07-.04c.46-.06.9-.25,1.25-.56.66-.56,1.02-1.4.98-2.27,0-3.18,0-6.36,0-9.53-.01-.19.06-.37.2-.5.53-.46.78-1.17.66-1.87m-9.8-3.76c.42-.41.94-.72,1.51-.88.41-.06.7-.44.66-.85v-1.34c-.04-.33.2-.62.53-.65.03,0,.06,0,.08,0,.36-.03.67.24.69.59,0,.03,0,.05,0,.08,0,.48,0,.95,0,1.43-.03.33.19.63.51.7.67.19,1.27.55,1.75,1.05.47.5.79,1.13.92,1.8H3.18c.15-.74.52-1.41,1.06-1.94m7.52,15.48c0,.58.03.99-.39,1.35-.21.2-.48.31-.77.32-2.38,0-4.75,0-7.13,0-.58-.02-1.07-.46-1.13-1.04,0-.1-.02-.2-.02-.3v-1.98h1.95c.28,0,.5-.22.5-.5s-.22-.5-.5-.5h-1.95v-1.35h1.95c.28,0,.5-.22.5-.5s-.22-.5-.5-.5h-1.95v-1.35h1.95c.28,0,.5-.22.5-.5s-.22-.5-.5-.5h-1.95v-1.91h9.46l-.03,9.27Zm.19-10.66c-1.65,0-3.29,0-4.94,0s-3.23,0-4.85,0c-.41,0-.76-.32-.78-.73.01-.42.37-.76.79-.74h9.14c.27,0,.53.02.8.04.37.06.63.4.58.78-.06.37-.37.64-.74.65"/>
        </g>
      </g>
    </g>
  </g>
</svg>